<svg width="89" height="45" fill="none" xmlns="http://www.w3.org/2000/svg"><path d="M44.74 20.689a3.085 3.085 0 01-.57-1.994v-2.89c0-.885.189-1.558.567-2.019.378-.46 1.028-.69 1.949-.688.865 0 1.48.196 1.843.588.396.5.589 1.112.544 1.729v.679h-1.547v-.688c.005-.225-.01-.45-.045-.673a.662.662 0 00-.221-.4.856.856 0 00-.561-.156.906.906 0 00-.59.165.779.779 0 00-.257.44 3.555 3.555 0 00-.06.715v3.507c-.025.338.044.677.198.985a.731.731 0 00.31.238.804.804 0 00.399.056.806.806 0 00.548-.159.717.717 0 00.23-.426c.037-.233.053-.468.049-.703v-.711h1.547v.65a2.76 2.76 0 01-.535 1.816c-.355.43-.961.644-1.852.644-.891 0-1.564-.23-1.946-.705zM51.186 20.718c-.391-.45-.587-1.105-.587-1.973v-3.04c0-.858.196-1.507.587-1.948.39-.441 1.044-.66 1.961-.659.91 0 1.56.22 1.952.659.39.44.59 1.09.59 1.949v3.04c0 .858-.2 1.516-.597 1.969-.397.453-1.044.679-1.945.679-.9 0-1.567-.23-1.961-.676zm2.682-.73c.14-.28.204-.59.186-.899v-3.721a1.738 1.738 0 00-.183-.882.735.735 0 00-.316-.243.808.808 0 00-.408-.051.82.82 0 00-.41.052.746.746 0 00-.318.242 1.7 1.7 0 00-.185.882v3.739c-.02.31.044.618.185.9a.96.96 0 00.327.222 1.035 1.035 0 00.796 0 .96.96 0 00.326-.223v-.017zM57.55 13.187h1.667l1.253 5.608 1.282-5.608h1.622l.163 8.095H62.34l-.128-5.626-1.238 5.626h-.961l-1.282-5.647-.119 5.647H57.4l.15-8.095zM65.406 13.187h2.596c1.496 0 2.244.766 2.244 2.298 0 1.468-.788 2.2-2.362 2.199h-.885v3.598h-1.602l.01-8.095zm2.218 3.46c.158.018.319.005.471-.04.152-.044.292-.118.41-.216.184-.274.265-.595.231-.914a2.687 2.687 0 00-.077-.735.607.607 0 00-.118-.222.67.67 0 00-.202-.163 1.574 1.574 0 00-.715-.13h-.622v2.42h.622zM72.556 13.187h1.721l1.766 8.095h-1.494l-.349-1.867h-1.535l-.36 1.867H70.79l1.766-8.095zm1.471 5.29l-.6-3.397-.599 3.398h1.199zM77.469 13.187h1.122l2.147 4.618v-4.618h1.33v8.095h-1.067l-2.16-4.82v4.82h-1.375l.003-8.095zM85.184 18.195l-1.786-4.997h1.504l1.09 3.21 1.022-3.21h1.47l-1.762 4.997v3.087h-1.538v-3.087zM47.215 24.821v.424h-1.308v3.289h-.548v-3.29h-1.314v-.423h3.17zM51.314 28.534h-.423a.18.18 0 01-.119-.035.19.19 0 01-.07-.085l-.378-.882H48.51l-.378.882a.248.248 0 01-.058.1.187.187 0 01-.119.035h-.423l1.603-3.713h.557l1.622 3.698zm-2.654-1.378h1.513l-.64-1.511a2.812 2.812 0 01-.12-.35l-.06.197-.058.155-.635 1.509zM54.077 28.17c.1.004.2.004.3 0 .087-.009.173-.024.257-.045.079-.017.156-.04.231-.067.07-.027.141-.06.215-.091v-.835h-.641a.117.117 0 01-.11-.06.079.079 0 01-.009-.037v-.285h1.244v1.422a2.375 2.375 0 01-1.077.38 4.569 4.569 0 01-.468.023 2.316 2.316 0 01-.808-.138 1.946 1.946 0 01-.64-.388 1.79 1.79 0 01-.414-.588 1.956 1.956 0 01-.147-.77 2.03 2.03 0 01.144-.776c.092-.22.233-.42.413-.588a1.92 1.92 0 01.641-.385c.275-.095.566-.142.859-.139.15 0 .298.011.446.033.13.02.258.05.38.094.113.038.22.088.321.147.099.058.192.123.28.194l-.155.23a.138.138 0 01-.052.05.154.154 0 01-.073.02.202.202 0 01-.099-.03 1.946 1.946 0 01-.157-.088 1.384 1.384 0 00-.215-.1 1.931 1.931 0 00-.295-.082 2.319 2.319 0 00-.407-.033 1.793 1.793 0 00-.618.103 1.341 1.341 0 00-.471.294c-.133.134-.235.29-.298.462a1.838 1.838 0 000 1.237c.07.175.179.334.32.468.132.127.291.227.468.294.204.064.42.09.635.073zM59.185 28.11h1.75v.424H58.65V24.82h.548l-.013 3.29zM62.756 28.534h-.548V24.82h.548v3.713zM64.794 24.839c.032.017.06.04.083.067l2.343 2.799a.913.913 0 010-.132v-2.767h.478v3.728h-.276a.246.246 0 01-.119-.02.311.311 0 01-.086-.071l-2.34-2.796v2.887h-.458v-3.713h.285a.24.24 0 01.09.018zM71.732 24.821v.409H69.79v1.226h1.574v.394H69.79v1.266h1.942v.41h-2.506V24.82h2.506zM14.303 1.893l24.335 6.338v22.208l-24.334-6.335V1.894zM12.743 0v25.183l27.453 7.152V7.155L12.743 0z" fill="#AFB1B8"/><path d="M27.456 44.025L0 36.867v-25.18l27.456 7.155v25.183z" fill="#AFB1B8"/><path d="M13.198 1.608l24.017 6.258-10.214 9.371-24.02-6.26 10.217-9.37zM12.743 0L0 11.688l27.456 7.154 12.74-11.687L12.743 0zM29.002 42.608l11.194-10.27-11.194-2.919v13.19z" fill="#AFB1B8"/></svg>